<?xml version="1.0" standalone="no"?>
<!DOCTYPE svg PUBLIC "-//W3C//DTD SVG 20010904//EN"
 "http://www.w3.org/TR/2001/REC-SVG-20010904/DTD/svg10.dtd">
<svg version="1.0" xmlns="http://www.w3.org/2000/svg"
 width="1024.000000pt" height="1024.000000pt" viewBox="0 0 1024.000000 1024.000000"
 preserveAspectRatio="xMidYMid meet">
<metadata>
Created by potrace 1.14, written by Peter Selinger 2001-2017
</metadata>
<g transform="translate(0.000000,1024.000000) scale(0.100000,-0.100000)"
fill="#000000" stroke="none">
<path d="M5117 9251 c-4 -20 -13 -31 -23 -31 -10 0 -15 -3 -11 -6 3 -4 0 -19
-9 -35 -8 -16 -14 -32 -13 -35 0 -4 -3 -10 -8 -13 -8 -5 -91 -147 -102 -176
-2 -5 -10 -16 -18 -23 -7 -8 -11 -18 -8 -23 4 -5 2 -9 -3 -9 -5 0 -17 -18 -27
-40 -10 -22 -22 -40 -27 -40 -5 0 -6 -4 -3 -10 3 -5 1 -10 -6 -10 -7 0 -9 -3
-6 -6 4 -4 -2 -19 -13 -34 -11 -16 -20 -33 -20 -39 0 -6 -4 -11 -10 -11 -5 0
-10 -7 -10 -15 0 -8 -5 -15 -11 -15 -5 0 -7 -5 -4 -10 3 -6 -3 -22 -14 -36
-11 -15 -18 -30 -15 -35 3 -5 0 -9 -5 -9 -6 0 -23 -24 -37 -52 -15 -29 -31
-55 -35 -56 -5 -2 -7 -8 -3 -13 3 -5 0 -9 -6 -9 -6 0 -9 -4 -6 -9 3 -5 -1 -14
-9 -21 -8 -7 -12 -16 -9 -21 3 -5 0 -9 -6 -9 -6 0 -9 -4 -6 -9 3 -5 -1 -11 -9
-15 -8 -3 -15 -12 -15 -21 0 -8 -5 -15 -11 -15 -5 0 -7 -4 -4 -10 3 -5 1 -10
-4 -10 -6 0 -10 -3 -9 -7 2 -11 -34 -83 -43 -83 -7 0 -22 -39 -20 -52 1 -5 -4
-8 -9 -8 -6 0 -10 -5 -10 -11 0 -6 -9 -23 -20 -39 -11 -15 -17 -30 -13 -34 3
-3 1 -6 -5 -6 -7 0 -12 -7 -12 -15 0 -8 -4 -15 -10 -15 -5 0 -10 -9 -10 -20 0
-11 -4 -20 -8 -20 -10 0 -37 -50 -34 -62 1 -5 -3 -8 -8 -8 -6 0 -10 -5 -10
-11 0 -6 -9 -23 -20 -39 -11 -15 -17 -30 -13 -34 3 -3 1 -6 -5 -6 -7 0 -11 -3
-10 -7 2 -13 -38 -93 -44 -87 -3 3 -5 -1 -5 -8 2 -17 -33 -88 -55 -112 -10
-10 -15 -23 -12 -28 3 -4 0 -8 -7 -8 -7 0 -9 -3 -6 -7 9 -8 -13 -34 -23 -28
-5 3 -12 0 -16 -6 -4 -8 -3 -9 4 -5 7 4 12 1 12 -8 0 -22 -38 -58 -52 -50 -7
4 -8 3 -4 -5 4 -6 11 -9 15 -7 4 3 8 0 8 -7 0 -17 -45 -18 -51 0 -7 16 -26 8
-26 -10 0 -7 4 -6 11 3 7 10 9 11 7 2 -2 -8 -8 -13 -13 -13 -6 0 -17 -7 -26
-15 -9 -8 -19 -11 -23 -7 -4 4 -4 0 0 -10 4 -10 1 -17 -6 -17 -9 0 -9 -4 1
-17 12 -15 12 -16 -4 -10 -10 4 -16 3 -12 -2 3 -5 2 -11 -2 -14 -5 -2 -1 -2 7
0 11 2 11 0 -2 -10 -14 -11 -15 -16 -5 -27 9 -10 9 -11 -1 -6 -7 4 -15 1 -18
-8 -3 -9 -12 -16 -20 -16 -15 0 -15 -21 1 -32 6 -5 5 -8 -2 -8 -15 0 -32 31
-26 48 3 6 10 9 15 6 6 -4 8 -2 5 4 -8 12 -32 10 -44 -3 -4 -4 -2 -5 5 -1 15
9 15 1 1 -26 -6 -12 -7 -18 -1 -14 5 3 12 -1 15 -9 4 -10 1 -12 -10 -8 -12 5
-14 3 -8 -8 5 -8 4 -11 0 -6 -5 4 -15 -3 -22 -15 l-14 -23 6 25 c6 24 5 24 -9
6 -14 -18 -15 -18 -13 2 1 13 7 19 18 17 11 -2 18 5 22 20 2 13 1 24 -2 23
-16 -3 -39 15 -34 28 4 10 0 12 -13 7 -17 -6 -17 -5 -5 10 7 9 9 17 5 17 -5 0
-15 13 -22 29 -9 21 -18 28 -29 24 -9 -4 -14 -2 -11 3 6 9 -22 41 -32 37 -3
-2 -6 2 -6 7 -3 21 -4 22 -19 10 -12 -10 -15 -9 -15 4 0 10 -4 14 -10 11 -5
-3 -10 -1 -10 5 0 7 -8 9 -20 5 -12 -4 -20 -2 -20 5 0 6 -4 9 -8 6 -5 -3 -20
1 -35 9 -19 10 -27 10 -31 2 -2 -7 -5 -4 -5 6 -1 10 -5 15 -11 12 -9 -6 -14 8
-11 28 0 4 -4 7 -10 7 -6 0 -9 9 -6 20 3 11 0 20 -5 20 -6 0 -5 6 2 15 9 11
10 15 1 15 -8 0 -7 6 3 16 9 8 13 20 10 26 -4 7 -2 8 4 4 7 -4 12 -1 12 8 0 9
7 16 16 16 8 0 12 5 9 10 -3 6 -2 10 3 10 5 0 14 12 20 26 7 14 16 23 21 20 5
-4 8 5 7 18 -2 14 2 24 7 23 6 -1 12 4 13 11 1 6 3 13 4 15 4 4 8 40 9 92 2
77 1 86 -9 80 -6 -3 -7 0 -5 8 3 7 -1 27 -10 43 -8 16 -15 35 -15 42 0 7 -4
10 -10 7 -5 -3 -10 0 -10 8 0 8 -8 21 -17 28 -17 13 -17 13 -3 -5 14 -18 14
-18 -7 -6 -12 8 -19 18 -17 22 3 4 -2 8 -10 8 -9 0 -16 5 -16 10 0 6 -7 10
-15 10 -8 0 -15 5 -15 10 0 6 -7 10 -16 10 -8 0 -13 4 -10 9 4 5 -2 8 -11 6
-10 -1 -24 2 -30 8 -7 5 -13 6 -13 3 0 -4 -9 2 -20 12 -17 15 -35 18 -122 17
-86 -1 -117 -6 -186 -30 -45 -16 -92 -38 -103 -48 -10 -10 -24 -15 -29 -12 -6
3 -10 2 -10 -4 0 -5 -9 -13 -20 -16 -11 -4 -18 -11 -15 -16 4 -5 -3 -9 -15 -9
-12 0 -18 -4 -15 -10 3 -5 1 -10 -5 -10 -13 0 -80 -71 -80 -85 0 -6 -9 -17
-19 -25 -11 -7 -18 -17 -15 -22 3 -4 1 -8 -4 -8 -10 0 -33 -50 -39 -85 -9 -57
-4 -168 9 -176 7 -5 9 -9 5 -9 -5 0 -1 -7 7 -16 9 -8 14 -20 11 -25 -4 -5 1
-9 10 -9 9 0 13 -4 10 -10 -3 -5 -1 -10 5 -10 6 0 14 -8 17 -17 11 -30 30 -43
60 -43 16 0 23 -4 17 -8 -9 -5 -8 -11 2 -20 8 -7 14 -10 14 -6 0 3 7 1 15 -6
8 -7 15 -9 15 -4 0 4 7 -1 15 -12 8 -10 15 -14 15 -9 0 6 5 3 10 -5 9 -13 10
-13 10 0 0 12 2 12 8 2 12 -18 66 -27 57 -10 -4 7 0 5 7 -4 13 -15 15 -15 25
0 10 15 12 14 12 -7 1 -24 1 -24 17 -5 8 10 12 12 8 4 -6 -12 -4 -13 7 -2 15
14 33 17 25 4 -3 -5 5 -7 17 -6 12 1 26 3 30 3 5 1 6 5 3 9 -3 5 1 9 9 9 8 0
12 -5 8 -10 -3 -5 4 -4 16 2 20 11 26 5 22 -21 0 -5 3 -8 9 -8 6 0 6 -9 0 -24
-5 -13 -6 -27 -3 -30 4 -3 2 -6 -3 -6 -13 0 -9 -91 4 -99 12 -9 25 -42 27 -72
1 -15 5 -34 8 -43 4 -9 2 -16 -4 -16 -6 0 -3 -10 5 -22 12 -16 13 -25 4 -35
-9 -11 -7 -12 8 -6 17 6 17 5 5 -10 -11 -14 -11 -18 2 -23 9 -3 18 -12 21 -20
3 -9 1 -12 -4 -9 -6 3 -10 1 -10 -4 0 -6 -5 -11 -11 -11 -6 0 -8 7 -5 16 3 8
2 12 -4 9 -6 -3 -10 -13 -10 -21 0 -8 -4 -13 -9 -10 -5 3 -12 -1 -15 -10 -4
-10 -12 -14 -22 -10 -14 5 -15 4 -5 -8 9 -11 8 -15 -5 -20 -9 -3 -22 -2 -29 4
-8 7 -12 5 -12 -5 0 -8 4 -12 8 -10 4 3 10 -2 13 -11 5 -12 2 -15 -10 -10 -14
5 -15 4 -4 -9 7 -8 9 -15 5 -15 -4 0 -2 -6 4 -13 11 -14 5 -27 -13 -27 -6 0
-4 5 4 11 12 9 11 9 -5 4 -11 -4 -26 -8 -32 -8 -7 0 -13 -4 -13 -9 0 -5 10 -6
22 -2 20 6 21 5 9 -10 -8 -9 -11 -19 -7 -23 3 -3 6 -2 6 3 0 5 15 9 32 8 32
-1 34 -4 29 -43 -1 -10 -40 -26 -53 -23 -4 1 -4 -6 -1 -16 3 -9 3 -14 -1 -10
-11 9 -46 -23 -39 -35 3 -6 1 -7 -4 -4 -6 4 -13 0 -17 -8 -3 -8 -13 -15 -23
-15 -15 0 -16 -2 -3 -10 13 -8 13 -11 1 -22 -11 -11 -13 -11 -6 1 6 10 4 12
-4 7 -9 -6 -9 -11 -1 -21 7 -8 7 -16 2 -19 -6 -3 -13 1 -16 10 -5 13 -9 14
-20 5 -11 -10 -17 -8 -26 6 -9 15 -10 14 -4 -7 5 -20 4 -23 -7 -13 -17 17 -19
54 -3 60 11 4 11 10 -2 34 -9 18 -10 29 -4 29 6 0 13 -7 16 -15 4 -8 10 -15
16 -15 5 0 7 4 3 9 -3 5 -1 12 5 16 5 3 10 12 10 18 0 8 -3 8 -8 2 -4 -6 -13
-10 -19 -9 -7 1 -18 2 -24 3 -5 0 -7 5 -4 11 3 6 -1 7 -10 3 -12 -4 -13 -8 -5
-13 8 -5 9 -10 2 -14 -6 -3 -8 -16 -5 -29 5 -21 5 -21 -9 -3 -8 11 -13 33 -12
49 2 17 1 28 -2 24 -11 -11 -14 -67 -3 -67 6 0 8 -4 5 -9 -3 -5 1 -11 9 -15 8
-3 19 3 24 12 10 16 10 16 11 0 0 -9 -4 -19 -10 -23 -5 -3 -7 -13 -4 -23 4
-11 -1 -9 -14 7 -16 20 -22 22 -38 12 -18 -11 -17 -11 4 -6 13 4 22 2 22 -4 0
-6 -8 -11 -17 -12 -14 0 -13 -2 5 -9 23 -10 29 -25 12 -35 -5 -3 -7 0 -4 8 3
8 -2 14 -11 14 -14 0 -14 -3 0 -24 12 -18 13 -27 4 -42 -7 -11 -9 -26 -4 -37
12 -27 12 -38 0 -46 -17 -12 -30 -9 -17 4 15 15 15 28 1 28 -5 0 -7 -5 -3 -12
5 -7 2 -9 -8 -5 -9 3 -21 0 -28 -6 -10 -10 -12 -8 -7 6 4 10 3 15 -2 12 -5 -3
-12 -1 -16 4 -3 5 -14 8 -25 6 -11 -2 -20 1 -20 6 0 6 -7 3 -16 -5 -18 -19
-38 -21 -28 -3 5 8 3 8 -9 -2 -9 -7 -14 -18 -11 -23 4 -6 -2 -7 -17 -3 -13 4
-21 4 -17 0 4 -5 -7 -19 -25 -33 -17 -13 -25 -22 -17 -20 17 5 40 -14 41 -34
0 -7 4 -4 9 7 7 15 9 16 9 4 1 -11 10 -16 26 -16 13 0 23 3 20 7 -2 3 2 7 10
7 8 0 12 -4 9 -9 -3 -4 9 -6 26 -4 23 3 28 0 21 -7 -6 -6 -11 -19 -11 -30 0
-10 -4 -16 -8 -13 -4 2 -14 0 -22 -6 -12 -8 -12 -9 3 -4 9 3 17 1 17 -4 0 -6
-5 -10 -11 -10 -7 0 -9 -10 -5 -25 6 -25 -7 -34 -20 -13 -4 7 -3 8 4 4 8 -5
10 -2 6 9 -6 14 -8 14 -19 -2 -7 -9 -12 -28 -10 -40 1 -14 -2 -22 -9 -20 -6 2
-10 13 -8 23 2 14 1 16 -6 5 -5 -7 -16 -18 -23 -23 -11 -8 -10 -8 4 -4 15 5
17 2 12 -15 -5 -13 -3 -19 3 -15 5 3 12 -1 15 -9 4 -10 1 -12 -11 -9 -15 5
-15 4 1 -6 9 -6 21 -8 26 -5 6 3 14 -2 19 -11 6 -11 11 -13 16 -5 4 6 12 11
19 11 6 0 2 -6 -9 -14 -10 -8 -15 -18 -11 -22 4 -5 12 -3 16 5 6 10 10 9 14
-4 4 -9 3 -13 -3 -10 -6 3 -10 1 -10 -5 0 -6 -4 -8 -10 -5 -20 12 4 -30 28
-50 23 -20 23 -22 6 -35 -16 -13 -17 -13 -12 0 4 11 0 16 -12 16 -17 0 -17 -2
-1 -23 17 -24 33 -30 28 -12 -1 6 4 14 11 16 15 6 16 -13 2 -22 -8 -5 -7 -12
2 -23 12 -16 11 -16 -6 -2 -18 14 -19 13 -14 -2 7 -17 -14 -20 -29 -3 -4 4 -2
5 5 1 6 -4 12 -2 12 3 0 13 -17 14 -25 2 -3 -5 2 -16 10 -24 19 -19 20 -34 2
-18 -8 6 -17 8 -20 4 -4 -3 1 -12 11 -20 15 -11 13 -12 -11 -1 -27 11 -32 36
-6 30 10 -3 11 0 3 8 -13 13 -46 2 -37 -14 3 -6 2 -8 -2 -3 -5 4 -17 -1 -27
-10 -15 -14 -21 -14 -31 -3 -10 10 -9 12 6 7 10 -4 16 -3 13 2 -6 9 12 29 27
30 4 0 15 5 25 10 14 8 14 11 2 12 -8 1 -18 1 -22 0 -5 0 -8 5 -8 12 0 8 -3 7
-9 -3 -6 -8 -7 -18 -4 -23 3 -5 -4 -6 -16 -2 -13 4 -21 2 -21 -5 0 -6 5 -8 10
-5 6 3 10 2 10 -4 0 -5 -10 -13 -22 -17 -19 -6 -19 -7 -5 -16 24 -13 22 -31
-2 -18 -24 12 -41 13 -21 0 8 -5 11 -12 7 -16 -3 -4 -13 -1 -22 6 -8 7 -15 8
-15 4 0 -5 9 -15 20 -22 11 -7 20 -17 20 -24 0 -7 -6 -6 -17 4 -28 23 -43 30
-43 19 0 -6 6 -11 14 -11 19 0 40 -26 26 -35 -5 -3 -10 -1 -10 4 0 6 -5 11
-12 11 -9 0 -9 -3 0 -12 17 -17 15 -33 -2 -19 -10 8 -16 9 -21 1 -4 -6 -1 -9
6 -8 6 2 14 -3 17 -11 3 -8 0 -11 -7 -7 -6 4 -11 3 -11 -2 0 -6 7 -12 15 -16
8 -3 15 -11 15 -17 0 -8 -4 -8 -15 1 -10 9 -15 9 -15 1 0 -6 5 -11 10 -11 6 0
10 -7 10 -16 0 -8 -4 -13 -8 -10 -12 7 -11 -26 0 -41 5 -7 7 -17 3 -23 -3 -5
-1 -10 4 -10 14 0 14 23 0 37 -6 6 -8 16 -5 22 11 17 22 13 24 -9 4 -44 6 -50
14 -50 5 0 7 -4 3 -10 -3 -5 -13 -7 -23 -4 -12 4 -14 3 -4 -3 7 -6 14 -19 15
-31 0 -11 5 -18 9 -16 4 3 8 1 8 -5 0 -5 -6 -11 -12 -14 -7 -2 -2 -2 12 0 l24
4 -19 -23 -20 -23 21 18 c20 17 30 52 11 40 -6 -4 -7 -1 -2 7 5 9 4 11 -4 6
-15 -10 -27 22 -13 36 8 8 8 17 1 30 -5 10 -7 18 -5 18 3 0 10 -9 16 -21 9
-15 8 -24 -1 -36 -11 -12 -10 -14 7 -11 12 2 18 -2 16 -11 -2 -9 3 -11 15 -7
16 6 17 5 1 -7 -12 -9 -14 -18 -7 -30 6 -9 7 -17 3 -17 -4 0 6 -11 22 -25 21
-19 23 -24 9 -19 -17 7 -18 6 -7 -8 9 -11 10 -18 2 -23 -14 -9 -13 -18 8 -41
19 -20 22 -26 22 -45 0 -5 5 -7 12 -3 7 4 8 3 4 -5 -4 -6 -11 -9 -16 -6 -5 3
-11 1 -15 -5 -3 -5 -2 -10 3 -10 6 0 12 -6 15 -14 4 -10 -1 -13 -19 -11 -27 3
-32 -10 -8 -19 12 -5 14 -10 5 -20 -6 -7 -8 -16 -4 -20 4 -4 0 -4 -8 -1 -13 5
-16 0 -14 -20 3 -23 1 -24 -12 -13 -15 12 -15 10 -3 -11 11 -21 10 -23 -4 -18
-14 5 -15 3 -6 -13 9 -16 8 -18 -6 -13 -12 4 -15 3 -10 -6 4 -6 2 -19 -6 -28
-11 -14 -11 -16 1 -8 10 6 12 4 7 -4 -5 -7 -15 -10 -23 -6 -13 4 -14 3 -3 -10
10 -13 9 -15 -7 -15 -11 0 -20 -6 -20 -14 0 -22 -24 -76 -34 -76 -5 0 -8 -3
-7 -7 1 -5 -17 -46 -40 -93 -23 -46 -42 -88 -42 -93 0 -5 -7 -15 -15 -23 -8
-8 -11 -22 -8 -31 4 -11 3 -14 -5 -9 -8 5 -10 2 -5 -9 3 -10 0 -21 -7 -25 -8
-5 -15 -16 -16 -24 -1 -9 2 -14 7 -10 5 3 9 1 9 -4 0 -5 -9 -12 -20 -15 -11
-3 -19 -11 -18 -19 2 -7 -2 -12 -7 -11 -6 1 -11 -7 -11 -18 0 -18 2 -18 12 -5
6 9 15 12 19 8 5 -4 5 -1 0 7 -6 10 -4 12 6 6 12 -8 12 -6 0 8 -11 15 -11 17
2 17 23 0 15 -26 -19 -61 -16 -18 -23 -29 -16 -25 6 4 12 3 12 -3 0 -5 -5 -11
-12 -13 -7 -3 -5 -7 6 -11 9 -4 15 -3 11 2 -3 5 0 13 6 17 7 4 9 3 5 -4 -3 -5
0 -13 6 -15 10 -4 10 -6 0 -6 -7 -1 -10 -6 -6 -12 4 -8 0 -8 -15 0 -12 7 -21
8 -21 2 0 -5 5 -11 12 -13 6 -2 8 -10 4 -17 -5 -7 -14 -10 -22 -7 -11 4 -12 2
-4 -14 15 -27 12 -38 -5 -16 -14 18 -14 18 -13 0 0 -11 -3 -27 -7 -36 -4 -11
-3 -18 5 -18 6 0 8 -5 5 -10 -5 -8 -11 -7 -21 1 -10 8 -14 8 -14 0 0 -6 4 -11
9 -11 13 0 8 -43 -7 -48 -8 -2 -10 3 -6 15 5 14 4 15 -4 3 -6 -8 -8 -18 -6
-22 3 -4 0 -8 -6 -8 -6 0 1 -11 16 -25 15 -14 34 -23 41 -21 7 3 13 1 13 -4 0
-6 -7 -10 -15 -10 -8 0 -15 -5 -15 -11 0 -5 6 -7 13 -3 7 4 9 3 4 -2 -5 -5
-13 -10 -18 -10 -22 -3 -23 -5 -9 -14 11 -7 11 -10 2 -10 -7 0 -10 -5 -7 -10
4 -6 12 -7 18 -4 7 4 8 3 4 -2 -5 -5 -14 -9 -20 -9 -7 0 -12 -7 -12 -15 0 -19
-16 -31 -30 -22 -5 3 -17 8 -27 9 -19 3 -18 -29 2 -35 7 -3 10 0 6 7 -4 6 -2
11 4 11 19 0 5 -25 -16 -27 -10 -1 -28 -3 -39 -5 -14 -2 -19 2 -17 13 1 9 -6
22 -15 30 -15 11 -16 11 -6 0 13 -16 6 -44 -10 -34 -6 4 -7 1 -1 -8 13 -21 15
-49 3 -49 -5 0 -7 5 -4 10 10 16 -22 11 -39 -6 -9 -8 -16 -23 -16 -32 0 -14
-2 -15 -10 -2 -7 11 -11 9 -19 -13 -6 -15 -13 -27 -15 -27 -3 0 -3 7 0 15 4 8
1 15 -5 15 -6 0 -11 -5 -11 -11 0 -5 -4 -7 -10 -4 -5 3 -10 1 -10 -5 0 -6 -10
-21 -23 -33 -12 -12 -31 -41 -41 -64 -11 -24 -23 -43 -28 -43 -5 0 -6 -4 -3
-10 3 -5 1 -10 -4 -10 -6 0 -11 -7 -11 -15 0 -8 -5 -15 -11 -15 -5 0 -8 -4 -5
-9 3 -5 -1 -14 -9 -21 -8 -7 -13 -16 -10 -20 2 -4 -6 -18 -18 -31 -12 -13 -21
-24 -20 -24 7 0 -11 -45 -17 -45 -5 0 -14 -15 -20 -34 -6 -19 -17 -40 -25 -46
-8 -6 -11 -18 -8 -26 3 -8 1 -14 -5 -14 -6 0 -20 -21 -33 -47 -12 -27 -27 -51
-33 -55 -6 -4 -7 -8 -2 -8 5 0 2 -8 -7 -18 -10 -10 -14 -22 -10 -25 3 -4 2 -7
-3 -7 -6 0 -25 -30 -44 -67 -19 -38 -37 -70 -40 -73 -3 -3 -18 -32 -34 -65
-16 -33 -36 -68 -44 -77 -8 -10 -12 -18 -8 -18 4 0 0 -7 -8 -16 -9 -8 -14 -20
-11 -25 4 -5 1 -9 -4 -9 -6 0 -11 -5 -11 -11 0 -7 -13 -33 -29 -59 -16 -27
-27 -51 -24 -54 4 -3 1 -6 -5 -6 -7 0 -11 -3 -10 -7 2 -10 -33 -84 -50 -104
-7 -9 -14 -26 -15 -38 -1 -11 -4 -21 -8 -21 -9 0 -115 -212 -111 -222 1 -5 -2
-8 -6 -8 -8 0 -30 -38 -29 -50 0 -3 -14 -31 -32 -63 -17 -32 -45 -83 -61 -115
-33 -62 -48 -87 -68 -108 -11 -12 -11 -14 0 -14 10 0 9 -3 -2 -10 -12 -8 -12
-10 5 -10 42 -1 475 2 583 4 62 1 116 -2 118 -6 3 -5 11 -5 17 -1 11 6 50 8
62 3 14 -7 31 -5 37 5 5 6 8 5 8 -4 0 -11 3 -11 17 0 9 8 14 9 10 2 -8 -13 39
-13 61 0 6 5 12 5 12 0 0 -10 1081 -11 1097 0 6 4 14 3 17 -1 6 -10 68 -8 85
2 6 4 11 1 11 -6 0 -10 3 -9 9 1 8 13 12 13 27 0 11 -9 15 -9 10 -1 -5 8 1 12
21 13 15 1 32 1 36 0 4 -1 16 3 26 9 17 9 18 5 16 -48 -3 -58 -13 -140 -22
-177 -3 -11 -6 -33 -8 -50 -2 -16 -3 -34 -4 -38 -1 -5 -5 -5 -11 -2 -5 3 -7 0
-4 -8 2 -7 0 -25 -5 -40 -8 -20 -6 -28 7 -39 16 -12 16 -11 2 7 -14 19 -14 19
2 6 10 -7 16 -16 14 -20 -3 -4 -1 -13 5 -21 7 -12 9 -10 9 8 0 25 18 30 26 7
4 -8 10 -15 15 -15 4 0 6 6 3 13 -3 9 2 13 18 11 13 -1 26 -3 31 -3 4 -1 7 -6
7 -11 0 -6 -3 -9 -7 -9 -17 3 -33 -1 -33 -9 0 -4 9 -8 20 -9 11 -1 20 2 20 8
0 13 21 7 40 -11 8 -9 11 -10 6 -3 -10 16 -8 18 21 27 18 6 22 4 17 -8 -3 -9
-11 -13 -18 -9 -6 3 -7 2 -3 -2 13 -15 35 -14 42 2 5 14 9 13 29 -6 18 -17 26
-19 31 -10 5 7 4 10 -2 6 -11 -7 -45 28 -36 37 4 3 2 6 -3 7 -5 0 -19 2 -32 3
-13 2 -25 -1 -28 -6 -3 -4 -10 -6 -15 -2 -5 3 -7 9 -4 14 7 11 135 10 135 -1
0 -5 5 -9 11 -9 5 0 7 6 3 13 -6 8 -3 8 9 -1 9 -8 20 -11 26 -8 5 3 12 -1 15
-10 3 -9 12 -14 19 -11 6 2 21 -3 31 -12 16 -13 18 -13 11 -1 -8 13 -7 13 8 1
9 -7 17 -10 17 -5 0 5 7 0 15 -10 10 -14 15 -15 15 -6 0 9 6 6 16 -8 13 -18
19 -20 36 -11 15 8 19 8 14 0 -4 -7 1 -11 12 -11 11 0 25 -7 32 -15 15 -18 34
-20 24 -2 -5 8 -2 8 9 -2 9 -7 17 -21 17 -30 0 -14 2 -14 10 -1 6 9 10 11 10
3 0 -7 7 -10 15 -7 8 4 17 -1 21 -10 3 -9 15 -16 26 -16 11 0 26 -7 34 -15 8
-8 22 -12 32 -9 10 4 13 2 7 -3 -14 -12 -16 -46 -2 -55 9 -6 9 -8 0 -8 -7 0
-13 -4 -13 -10 0 -5 7 -6 17 -3 11 4 14 3 9 -5 -4 -7 -2 -12 4 -12 6 0 8 -5 4
-12 -4 -7 -3 -8 5 -4 6 4 9 12 6 17 -3 5 2 6 12 3 16 -5 16 -4 3 8 -23 20 -47
53 -32 44 7 -4 12 -2 12 6 0 9 3 9 8 2 4 -6 18 -10 31 -9 l23 2 -22 -17 c-16
-12 -19 -19 -11 -24 9 -6 9 -11 0 -22 -14 -17 2 -19 20 -2 7 7 12 9 11 3 -7
-33 1 -37 27 -14 21 18 24 19 10 3 -17 -20 -17 -22 0 -35 9 -8 14 -9 11 -4 -4
6 2 11 13 11 12 0 15 -4 9 -10 -16 -16 -11 -30 5 -16 12 10 15 10 15 0 0 -7 7
-10 15 -6 10 3 15 -1 15 -12 0 -15 2 -15 10 -2 6 10 10 11 10 3 0 -7 9 -13 20
-13 11 0 20 -4 20 -10 0 -5 7 -10 15 -10 14 0 53 -18 65 -30 3 -3 14 -7 25 -8
11 -2 23 -9 27 -15 4 -7 8 -8 8 -3 0 5 7 3 15 -4 8 -6 18 -9 24 -6 5 3 12 -1
15 -10 4 -9 9 -14 13 -11 3 4 11 2 18 -3 6 -5 34 -10 61 -11 58 -2 74 -9 122
-56 20 -19 49 -40 65 -45 15 -5 27 -14 27 -18 0 -5 8 -7 18 -5 9 1 22 -1 27
-5 6 -4 17 -8 25 -9 8 0 36 -3 61 -5 26 -2 52 -7 59 -11 9 -6 11 -4 4 6 -6 10
-2 10 16 -2 16 -11 25 -26 24 -42 -1 -18 3 -24 13 -20 9 4 13 15 10 29 -3 16
0 21 10 17 9 -4 11 0 7 13 -4 14 -3 16 4 5 8 -11 10 -11 14 0 3 9 6 8 11 -5 4
-9 3 -15 -2 -12 -11 7 -36 -22 -27 -31 3 -3 6 -1 6 5 0 6 9 9 20 7 11 -2 18 0
15 5 -3 4 1 11 7 13 10 4 10 6 1 6 -7 1 -13 6 -13 12 0 6 7 8 16 5 14 -5 15
-4 5 8 -11 13 -9 15 8 11 12 -2 19 0 16 6 -4 5 -2 9 2 9 9 0 50 37 73 67 14
17 18 31 23 78 2 23 29 46 57 48 11 1 20 6 20 11 0 5 3 6 6 3 4 -3 16 -1 28 5
11 7 24 11 29 10 4 -1 7 3 7 9 0 5 4 8 9 4 5 -3 17 2 25 11 9 8 16 12 16 7 0
-4 4 -3 8 2 4 6 24 19 44 30 20 10 35 22 32 27 -3 4 2 5 10 2 9 -3 16 -1 16 6
0 6 4 9 9 6 5 -3 14 1 21 10 7 8 19 13 27 10 7 -3 13 -2 13 3 0 5 14 14 30 21
17 7 30 17 30 22 0 5 5 6 10 3 6 -3 10 -2 10 2 0 5 15 15 33 22 17 8 34 15 37
16 3 2 15 6 27 10 13 4 20 12 16 17 -3 6 0 9 8 6 8 -3 20 2 27 11 8 9 11 10 7
4 -4 -9 -1 -11 9 -7 9 3 16 11 16 16 0 6 7 8 15 4 8 -3 15 -2 15 3 0 5 11 12
25 15 14 4 23 10 20 15 -2 5 2 12 11 15 9 3 12 2 8 -5 -7 -13 38 12 48 26 5 6
8 5 8 -3 0 -7 5 -10 10 -7 6 3 8 18 5 33 -5 26 -5 26 5 4 10 -24 35 -20 26 4
-3 8 -1 14 5 14 6 0 7 5 4 10 -4 6 -3 10 2 9 20 -4 27 2 13 12 -13 9 -12 10 2
5 10 -3 20 -1 23 5 4 5 12 6 18 2 22 -14 39 -13 27 1 -8 10 -5 13 15 11 14 -2
27 1 31 6 3 5 14 4 27 -3 21 -10 21 -10 7 7 -14 17 -14 18 8 6 12 -6 22 -8 22
-4 0 5 24 8 53 8 28 0 55 5 59 10 5 7 8 7 8 0 0 -6 21 -9 50 -7 42 3 49 6 39
18 -6 8 -8 14 -3 14 5 0 4 4 -2 8 -15 10 -42 83 -39 105 2 9 0 17 -4 17 -10 0
-8 31 3 48 4 7 13 10 19 6 7 -3 -1 6 -18 20 -27 23 -28 25 -7 21 12 -2 26 -6
32 -10 11 -7 32 29 22 40 -4 5 1 5 11 2 10 -4 21 -7 23 -7 3 0 2 -6 -2 -12 -8
-14 14 1 52 35 15 12 24 15 29 8 3 -6 11 -11 16 -11 6 0 8 4 5 8 -6 10 25 9
42 -2 7 -4 9 -12 6 -18 -4 -7 -2 -8 5 -4 6 4 9 11 6 16 -3 4 9 10 26 12 23 4
29 1 24 -10 -4 -11 -2 -12 7 -4 20 16 98 5 117 -17 44 -52 51 -62 51 -67 0 -3
13 -18 30 -34 16 -15 26 -31 22 -35 -4 -5 -1 -5 6 -1 7 4 15 1 18 -8 3 -9 15
-16 26 -16 10 0 17 -4 14 -8 -3 -5 1 -9 8 -9 8 0 30 -7 50 -17 43 -20 127 -43
176 -47 19 -2 38 -8 42 -14 5 -6 8 -5 8 3 0 7 5 10 11 7 18 -12 163 -13 177
-3 8 7 12 7 12 -1 0 -7 5 -9 13 -4 6 4 23 9 37 10 32 4 74 11 80 14 3 1 10 3
15 4 6 2 13 4 18 5 4 1 12 4 17 5 6 1 11 3 13 5 1 1 9 3 17 5 37 8 45 11 58
23 8 7 18 9 24 6 6 -4 8 -2 4 4 -3 6 7 16 24 24 16 7 30 19 30 26 0 7 4 11 9
8 4 -3 19 3 31 14 12 11 27 17 32 14 4 -3 7 -2 6 3 -4 11 59 73 73 73 6 0 7 4
4 10 -3 5 -2 10 4 10 5 0 12 -6 15 -12 3 -7 3 -3 0 9 -4 16 1 23 18 29 35 11
160 5 177 -9 9 -7 12 -8 8 -1 -4 7 2 12 18 12 14 0 25 -3 25 -7 0 -3 16 -6 35
-6 19 0 35 3 35 6 0 4 15 4 33 0 17 -3 59 -6 92 -5 33 1 187 3 342 3 263 1
282 2 278 18 -5 25 -34 81 -46 88 -5 4 -9 15 -9 26 0 10 -4 19 -9 19 -10 0
-46 70 -43 83 1 4 -2 7 -8 7 -5 0 -10 7 -10 15 0 8 -5 15 -10 15 -6 0 -9 3 -8
7 1 5 -6 21 -17 37 -11 16 -20 36 -21 44 -2 8 -6 18 -11 21 -4 3 -34 57 -65
119 -32 62 -74 143 -95 180 -55 101 -73 139 -73 157 0 8 -5 15 -10 15 -10 0
-35 48 -32 63 1 4 -2 7 -8 7 -5 0 -10 6 -10 14 0 8 -8 22 -17 32 -10 10 -16
19 -15 21 5 5 -50 116 -61 124 -4 3 -9 15 -10 27 0 12 -3 19 -6 17 -2 -3 -16
19 -31 48 -14 28 -38 73 -53 99 -15 27 -24 48 -20 48 3 0 0 8 -8 18 -8 9 -26
40 -39 67 -14 28 -29 53 -35 57 -5 4 -6 8 -2 8 5 0 1 7 -7 16 -9 8 -16 22 -16
30 0 9 -5 12 -12 8 -7 -4 -8 -3 -4 4 4 6 -4 28 -17 49 -13 21 -30 53 -38 70
-8 18 -16 33 -20 33 -3 0 -11 16 -19 35 -8 19 -18 35 -23 35 -5 0 -7 7 -3 15
3 8 2 15 -3 15 -4 0 -16 18 -26 40 -10 23 -22 37 -29 33 -6 -3 -8 -3 -4 2 4 4
3 14 -3 22 -6 7 -8 13 -4 13 5 0 -2 9 -15 20 -14 12 -18 20 -10 20 9 0 7 6 -6
16 -14 12 -16 17 -6 21 10 4 7 9 -8 17 -21 10 -31 30 -13 24 5 -2 7 -7 5 -11
-1 -5 2 -6 8 -2 17 11 11 23 -17 33 -16 6 -21 11 -12 11 9 1 16 8 16 15 0 12
-5 13 -21 4 -20 -11 -21 -10 -3 9 16 18 16 22 3 35 -11 12 -12 18 -3 29 10 11
9 11 -6 0 -16 -13 -16 -15 -1 -32 10 -11 13 -19 7 -19 -5 0 -16 11 -23 25 -7
13 -17 22 -22 19 -4 -3 -8 -1 -8 4 0 6 7 13 16 16 10 4 13 2 8 -6 -4 -6 -3 -8
4 -5 12 8 10 32 -3 44 -4 4 -5 2 -1 -4 4 -8 1 -13 -9 -13 -12 0 -15 6 -10 20
5 16 3 19 -11 13 -15 -6 -15 -4 1 23 10 17 11 22 2 11 -12 -14 -16 -15 -20 -4
-3 8 0 20 6 26 8 8 8 11 -1 11 -12 0 -15 -10 -13 -45 l1 -20 -9 20 c-4 11 -6
26 -4 33 3 6 1 12 -3 13 -25 2 -47 8 -52 15 -4 4 1 4 11 1 12 -5 17 -1 17 13
0 20 -32 44 -44 33 -3 -3 -6 -1 -6 6 0 8 6 11 17 7 10 -4 14 -4 10 0 -4 4 -2
13 5 21 8 11 7 12 -5 8 -8 -4 -18 -1 -22 4 -3 6 -11 9 -16 6 -5 -4 -9 -1 -9 4
0 6 5 11 10 11 6 0 10 5 10 11 0 5 -4 8 -9 5 -12 -8 -32 18 -34 43 -1 12 -4
21 -8 21 -6 0 -30 54 -33 73 -1 4 -7 11 -14 16 -8 5 -13 12 -13 17 2 19 -11
44 -22 44 -7 0 -6 4 3 10 13 8 12 10 -4 10 -12 0 -16 5 -12 15 3 8 2 15 -2 15
-9 0 -32 49 -32 68 0 7 -4 10 -10 7 -9 -6 -12 -2 -14 28 -1 6 -7 17 -14 22 -7
6 -14 21 -17 34 -2 14 -10 28 -17 33 -10 6 -10 10 2 18 12 9 12 10 -5 8 -15
-2 -19 2 -17 15 2 12 -4 20 -17 24 -19 5 -69 83 -53 83 4 0 1 4 -7 9 -8 5 -15
18 -16 29 0 11 -9 27 -18 36 -9 10 -17 24 -17 32 0 8 -4 14 -10 14 -5 0 -10 5
-10 11 0 7 -10 20 -22 30 -11 11 -16 19 -9 19 7 0 3 9 -8 21 -11 12 -17 27
-14 35 3 8 -1 14 -8 14 -10 1 -9 5 4 14 17 13 25 32 9 22 -5 -3 -9 1 -9 9 0 8
5 15 10 15 5 0 4 7 -3 15 -10 12 -9 16 3 21 8 3 14 13 12 22 -2 9 -4 21 -4 25
-1 5 -5 6 -9 3 -5 -3 -9 1 -9 7 0 7 10 13 21 14 12 1 15 -1 8 -4 -6 -3 -9 -9
-6 -15 4 -6 10 -5 16 3 7 10 8 8 3 -6 -4 -11 -8 -26 -9 -33 -1 -8 -9 -18 -17
-23 -13 -8 -5 -13 15 -10 5 1 4 -4 -3 -13 -9 -11 -9 -16 0 -22 8 -4 9 -3 5 4
-4 7 -2 12 4 12 7 0 9 7 6 16 -3 8 4 29 16 45 20 26 21 32 9 52 -35 55 -36 59
-23 64 6 3 12 8 12 13 0 9 -35 6 -62 -5 -11 -4 -18 -3 -18 5 0 6 4 9 9 6 9 -6
38 30 39 48 0 5 6 13 14 18 10 8 9 9 -4 5 -9 -3 -19 -1 -22 6 -3 7 -4 3 -3 -8
2 -16 -4 -20 -28 -20 -23 1 -29 5 -27 19 2 11 -1 15 -7 11 -6 -3 -11 -1 -11 5
0 6 -5 8 -12 4 -8 -5 -7 0 2 11 14 17 13 18 -5 11 -11 -4 -16 -4 -12 0 8 9
-11 34 -26 34 -7 0 -7 -4 1 -12 7 -7 12 -17 12 -23 0 -5 -7 -2 -15 8 -7 11
-11 26 -8 34 5 14 3 14 -18 0 -20 -13 -27 -14 -42 -2 -13 9 -15 14 -5 18 7 2
10 7 7 11 -10 10 -40 -5 -32 -17 3 -6 1 -7 -5 -3 -6 4 -20 3 -29 -2 -10 -5
-27 -6 -38 -1 -17 6 -17 8 -2 8 9 1 17 5 17 10 0 11 -19 9 -40 -4 -13 -8 -13
-7 -1 8 10 13 10 17 1 17 -7 0 -10 6 -7 14 3 7 0 19 -6 25 -8 8 -8 11 1 11 7
0 12 -5 12 -11 0 -5 4 -7 10 -4 9 6 -8 33 -20 33 -18 -1 -21 4 -9 19 12 15 12
16 -4 10 -11 -4 -16 -3 -12 4 4 6 13 8 20 5 22 -8 25 5 7 32 -22 33 -24 55 -6
48 9 -3 12 -2 9 5 -4 6 -13 8 -20 5 -9 -3 -12 3 -10 22 2 15 -2 33 -9 41 -7 9
1 7 19 -4 17 -11 27 -15 23 -10 -4 4 -3 14 3 22 6 7 8 13 4 13 -5 0 0 10 11
22 10 12 13 18 7 14 -7 -4 -13 -3 -13 3 0 5 6 12 13 15 9 5 9 7 -1 12 -6 3 -9
10 -6 15 4 6 11 6 19 -1 18 -15 32 7 16 23 -9 9 -10 7 -5 -8 7 -17 6 -18 -8
-7 -11 9 -18 10 -23 2 -3 -6 -12 -7 -18 -4 -8 5 -8 3 1 -7 16 -18 16 -34 -1
-20 -17 13 -28 5 -20 -15 4 -10 0 -12 -13 -8 -18 6 -18 6 0 -8 19 -15 33 -53
15 -42 -5 3 -7 9 -4 14 3 4 -2 11 -11 14 -8 3 -12 2 -9 -4 3 -6 0 -13 -8 -16
-7 -2 -14 -11 -14 -19 0 -8 4 -12 9 -9 13 8 9 -20 -4 -35 -10 -11 -10 -13 0
-7 15 9 16 -6 0 -22 -9 -9 -9 -12 1 -12 7 0 9 -4 6 -10 -3 -5 0 -8 7 -7 7 2
10 2 5 0 -4 -3 -4 -10 0 -16 3 -7 -3 -4 -14 6 -11 9 -22 15 -25 11 -7 -6 -48
49 -48 65 0 6 -5 11 -11 11 -5 0 -7 5 -4 10 3 6 1 10 -5 10 -7 0 -9 7 -6 16 3
8 2 13 -2 10 -9 -5 -57 83 -54 97 1 4 -3 7 -8 7 -6 0 -10 8 -10 17 0 9 -3 14
-6 10 -4 -3 -18 17 -32 46 -14 29 -32 58 -40 66 -7 7 -10 21 -7 29 3 9 3 13
-1 9 -9 -8 -54 56 -54 77 0 8 -4 16 -8 18 -8 3 -57 83 -82 133 -8 17 -19 33
-25 37 -5 4 -6 8 -2 8 4 0 -3 15 -17 33 -15 19 -26 37 -26 40 0 7 -73 124 -89
143 -5 7 -7 15 -4 18 4 3 1 6 -6 6 -7 0 -10 4 -7 8 3 5 -3 18 -13 29 -10 11
-22 29 -25 41 -4 12 -12 20 -17 17 -5 -3 -6 1 -3 9 3 9 1 16 -6 16 -6 0 -8 5
-5 10 3 6 2 10 -3 10 -5 0 -15 14 -22 30 -7 17 -17 30 -22 30 -5 0 -7 4 -4 9
3 5 -1 14 -9 21 -8 7 -12 16 -9 21 3 5 0 9 -6 9 -6 0 -8 5 -5 10 3 6 1 10 -5
10 -6 0 -8 5 -5 10 3 6 1 10 -5 10 -6 0 -8 5 -5 10 3 6 2 10 -4 10 -6 0 -13
11 -17 25 -3 14 -10 25 -15 25 -5 0 -9 6 -9 14 0 7 -7 19 -15 26 -8 7 -12 16
-9 21 3 5 0 9 -5 9 -6 0 -11 7 -11 15 0 8 -4 15 -10 15 -5 0 -10 7 -10 15 0 8
-5 15 -11 15 -5 0 -8 4 -4 9 3 6 -5 20 -17 32 -13 12 -17 19 -10 15 17 -10 15
-3 -8 24 -11 12 -17 27 -13 33 3 6 1 7 -5 3 -7 -4 -12 -2 -12 4 0 6 -7 18 -15
27 -8 8 -13 19 -10 24 4 5 1 9 -6 9 -7 0 -10 3 -6 6 3 3 2 11 -3 18 -49 59
-60 75 -60 85 0 6 -3 11 -8 11 -4 0 -18 20 -32 44 -13 25 -28 42 -33 39 -6 -3
-7 -1 -3 5 3 6 1 16 -6 24 -7 7 -19 25 -27 41 -8 15 -18 27 -23 27 -5 0 -7 4
-4 9 3 5 -1 14 -9 21 -8 7 -12 16 -9 21 3 5 -2 9 -10 9 -9 0 -16 7 -16 15 0 8
0 17 0 20 0 2 -12 17 -25 31 -14 15 -25 31 -25 37 0 5 -8 16 -17 24 -11 9 -12
12 -3 7 8 -4 5 4 -7 18 -13 13 -23 29 -23 36 0 6 -10 18 -22 26 -12 9 -17 16
-10 16 8 0 5 9 -8 22 -11 13 -23 33 -26 45 -4 13 -10 23 -16 23 -5 0 -6 5 -3
10 3 6 1 10 -5 10 -6 0 -8 5 -5 10 3 6 1 10 -5 10 -6 0 -8 5 -5 10 3 6 1 10
-4 10 -6 0 -11 7 -11 15 0 8 -5 15 -11 15 -6 0 -8 7 -5 16 3 8 2 12 -4 9 -5
-3 -12 6 -16 20 -3 14 -13 25 -23 25 -14 0 -14 2 -1 10 8 5 10 10 4 10 -6 0
-19 18 -29 40 -10 22 -20 38 -23 36 -2 -3 -16 18 -30 47 -14 29 -29 54 -34 55
-4 2 -8 12 -8 22 0 9 -7 23 -15 30 -8 7 -25 33 -37 59 -13 25 -27 49 -33 53
-5 4 -6 8 -2 8 4 0 -1 10 -13 22 -11 12 -20 28 -20 35 0 7 -3 13 -7 13 -5 0
-19 23 -32 50 -14 28 -28 50 -31 50 -3 0 -12 16 -20 35 -8 19 -18 35 -22 35
-5 0 -7 4 -3 9 3 6 -3 14 -12 20 -10 6 -15 11 -11 11 4 0 -4 16 -17 36 -14 20
-25 41 -25 46 0 5 -11 20 -24 34 l-23 26 -6 -31z m122 -302 c7 -16 17 -27 22
-24 5 4 6 0 3 -8 -3 -8 0 -18 5 -22 6 -3 9 -11 6 -16 -4 -5 -2 -9 3 -9 11 0
38 -61 33 -75 -2 -5 -4 -16 -5 -24 -3 -16 -46 -24 -46 -9 0 5 -6 6 -12 1 -7
-4 -23 -8 -35 -9 -18 -1 -20 2 -12 18 7 14 6 18 -5 18 -11 0 -14 10 -12 40 2
22 0 40 -4 40 -4 0 -6 14 -5 30 1 17 -2 30 -7 30 -5 0 -6 5 -3 10 3 6 2 10 -4
10 -16 0 -1 28 17 32 30 7 47 -3 61 -33z m-1927 -761 c9 2 19 -2 23 -8 5 -8
11 -8 21 1 10 8 14 8 14 0 0 -6 9 -11 21 -11 12 0 23 -8 26 -20 3 -12 14 -20
26 -20 11 0 18 -2 15 -5 -3 -3 7 -19 23 -36 15 -16 29 -42 31 -57 5 -40 -10
-115 -25 -124 -6 -4 -8 -8 -3 -8 5 0 3 -7 -4 -15 -7 -8 -9 -15 -4 -15 5 0 -2
-7 -14 -16 -12 -8 -22 -21 -23 -27 -1 -15 -79 -84 -99 -89 -8 -2 -18 -7 -22
-12 -3 -5 -14 -11 -23 -12 -9 -1 -27 -10 -41 -19 -14 -9 -35 -18 -47 -21 -12
-2 -33 -7 -47 -10 -29 -7 -143 -8 -180 -2 -45 8 -111 57 -128 96 -17 40 -24
152 -9 152 5 0 7 9 4 20 -3 11 -1 20 5 20 6 0 8 9 5 20 -3 11 -2 18 1 16 4 -2
13 2 20 10 7 8 10 14 6 14 -4 0 3 11 16 25 12 13 26 22 31 20 4 -3 9 0 11 7 3
7 7 5 11 -6 4 -9 3 -15 -1 -12 -4 2 -8 -4 -8 -15 0 -19 1 -19 17 2 15 20 17
21 26 4 9 -16 11 -16 16 -1 4 10 3 15 -3 11 -6 -3 -10 -2 -10 2 0 5 14 14 30
20 17 6 30 16 30 22 0 17 -20 13 -27 -5 -3 -8 -12 -13 -19 -10 -8 3 -14 1 -14
-3 0 -5 -6 -11 -13 -14 -8 -3 -14 1 -14 9 0 7 4 11 9 8 4 -3 8 0 8 6 0 7 7 9
16 6 15 -6 15 -4 3 11 -8 9 -9 14 -2 10 7 -4 16 0 22 10 6 10 11 12 11 6 0 -7
5 -13 11 -13 6 0 9 7 5 15 -3 8 -2 14 2 14 20 -3 51 15 45 25 -4 6 1 5 10 -3
9 -7 15 -17 12 -21 -3 -5 -1 -11 4 -15 6 -3 8 6 5 21 -5 25 -3 26 12 13 10 -8
15 -9 12 -4 -4 6 -3 17 3 25 7 12 9 12 9 1 0 -11 3 -11 17 0 15 12 16 12 8 -1
-8 -13 -6 -13 8 -1 9 7 22 11 29 9 7 -3 22 -2 33 2 11 4 25 5 30 1 6 -3 17 -4
27 -3z m566 -906 c2 -7 -1 -12 -8 -12 -6 0 -8 5 -5 10 3 6 1 10 -4 10 -6 0
-11 -5 -11 -12 0 -6 -3 -9 -6 -5 -9 9 6 29 19 24 6 -2 13 -9 15 -15z m52 -47
c0 -2 -10 -9 -22 -15 -22 -11 -22 -10 -4 4 21 17 26 19 26 11z m-75 -35 c-3
-5 -12 -10 -18 -10 -7 0 -6 4 3 10 19 12 23 12 15 0z m-518 -116 c-3 -3 -12
-4 -19 -1 -8 3 -5 6 6 6 11 1 17 -2 13 -5z m-120 -220 c-3 -3 -12 -4 -19 -1
-8 3 -5 6 6 6 11 1 17 -2 13 -5z m-171 -229 c17 12 21 12 21 0 0 -8 -3 -14 -6
-13 -20 2 -31 -3 -26 -12 4 -6 11 -7 17 -4 7 4 8 2 4 -5 -5 -8 -16 -5 -38 10
-30 22 -30 22 -19 1 6 -11 14 -22 18 -24 5 -3 3 -3 -4 -2 -7 2 -15 -1 -18 -6
-6 -10 7 -14 35 -11 13 2 13 1 0 -8 -13 -10 -8 -15 12 -12 4 0 5 -9 3 -20 -2
-12 2 -22 12 -26 13 -5 13 -7 -1 -15 -14 -8 -15 -12 -4 -26 12 -15 11 -16 -4
-3 -10 7 -15 18 -11 24 4 6 0 8 -8 5 -10 -4 -15 1 -15 12 0 10 5 16 11 12 5
-3 4 1 -2 10 -7 8 -10 18 -6 22 4 4 -1 4 -12 1 -17 -6 -18 -5 -5 5 13 10 12
11 -3 6 -10 -3 -15 -2 -12 3 3 5 1 12 -4 15 -15 10 -6 -26 10 -38 16 -12 18
-30 6 -42 -4 -5 2 -16 14 -25 16 -12 19 -18 9 -24 -7 -5 -11 -4 -8 1 3 5 -5
17 -18 27 -25 19 -33 11 -11 -13 6 -8 3 -7 -9 3 -11 9 -23 16 -25 15 -2 -2 3
4 12 12 17 16 17 23 5 58 -5 14 -3 28 5 38 6 8 9 17 6 21 -4 3 -2 12 4 20 9
10 8 18 -2 31 -7 9 0 5 17 -10 27 -25 32 -26 50 -13z m-161 -265 c-3 -5 -12
-10 -18 -10 -7 0 -6 4 3 10 19 12 23 12 15 0z m-35 -50 c0 -5 -4 -10 -10 -10
-5 0 -10 5 -10 10 0 6 5 10 10 10 6 0 10 -4 10 -10z m4292 -106 c2 -7 -1 -14
-6 -15 -5 -2 -10 6 -11 19 -2 22 10 19 17 -4z m-4252 -68 c0 -3 -4 -8 -10 -11
-5 -3 -10 -1 -10 4 0 6 5 11 10 11 6 0 10 -2 10 -4z m-34 -25 c-8 -12 22 -23
37 -15 9 5 9 4 1 -6 -15 -15 -54 -4 -54 16 0 8 5 14 11 14 5 0 8 -4 5 -9z m54
-41 c0 -5 -5 -10 -11 -10 -5 0 -7 5 -4 10 3 6 8 10 11 10 2 0 4 -4 4 -10z
m4195 0 c3 -5 1 -10 -4 -10 -6 0 -11 5 -11 10 0 6 2 10 4 10 3 0 8 -4 11 -10z
m24 -53 c12 -15 12 -17 -3 -11 -9 3 -16 13 -16 22 0 8 1 13 3 11 1 -2 9 -12
16 -22z m-4349 -23 c0 -8 -19 -13 -24 -6 -3 5 1 9 9 9 8 0 15 -2 15 -3z m5
-64 c3 -5 1 -10 -4 -10 -6 0 -11 5 -11 10 0 6 2 10 4 10 3 0 8 -4 11 -10z m85
0 c0 -5 -5 -10 -11 -10 -5 0 -7 5 -4 10 3 6 8 10 11 10 2 0 4 -4 4 -10z m-113
-22 c-3 -8 -6 -5 -6 6 -1 11 2 17 5 13 3 -3 4 -12 1 -19z m-23 -12 c-3 -9 -10
-13 -15 -10 -13 8 -11 -10 3 -24 9 -9 9 -15 0 -24 -13 -13 -16 -32 -4 -24 4 2
9 -5 9 -17 2 -18 -1 -16 -18 11 -24 37 -33 41 -24 11 5 -14 3 -19 -3 -15 -6 3
-13 2 -17 -3 -3 -6 3 -8 15 -6 13 3 24 -4 31 -18 10 -22 10 -22 -7 -2 -16 20
-16 20 -11 -3 3 -12 1 -20 -4 -16 -5 3 -9 -2 -9 -10 0 -10 6 -13 18 -9 14 5
13 3 -3 -11 -16 -13 -17 -15 -2 -10 9 3 17 1 17 -5 0 -6 -9 -11 -21 -11 -14 0
-19 5 -16 14 3 7 1 18 -5 24 -8 8 -8 15 1 25 9 12 8 16 -4 21 -14 5 -14 9 0
36 9 17 23 34 31 37 11 4 12 9 3 19 -14 17 -3 35 16 27 8 -3 15 1 15 8 0 7 2
10 5 7 3 -3 3 -13 -1 -22z m4549 -100 c3 3 4 -1 3 -10 -1 -8 -5 -18 -9 -21 -4
-3 -5 -2 -2 2 3 3 -3 16 -12 27 -14 15 -14 18 -2 8 9 -6 18 -9 22 -6z m-49 -4
c3 -5 -1 -9 -9 -9 -8 0 -12 4 -9 9 3 4 7 8 9 8 2 0 6 -4 9 -8z m93 -10 c0 -10
-6 -19 -13 -19 -9 0 -9 5 -1 19 7 10 13 18 14 18 1 0 1 -8 0 -18z m24 -15
c-10 -9 -11 -8 -5 6 3 10 9 15 12 12 3 -3 0 -11 -7 -18z m34 -16 c-9 -8 -36
-10 -30 -2 2 4 11 8 20 8 8 0 13 -3 10 -6z m80 -21 c-20 -22 -35 -26 -35 -9 0
5 4 8 9 5 5 -3 14 1 21 9 7 8 15 15 18 15 3 0 -3 -9 -13 -20z m-4741 -56 c3
-8 2 -12 -4 -9 -6 3 -10 10 -10 16 0 14 7 11 14 -7z m4761 8 c-15 -10 -12 -31
5 -42 8 -5 11 -10 5 -10 -5 0 -2 -5 8 -11 21 -12 22 -29 1 -55 -14 -18 -15
-18 -4 4 13 26 -1 52 -27 52 -9 0 -13 6 -10 14 3 8 1 17 -6 19 -15 5 9 37 27
37 7 0 8 -3 1 -8z m-60 -21 c3 -5 2 -12 -3 -15 -5 -3 -9 1 -9 9 0 17 3 19 12
6z m25 -31 c0 -5 -5 -10 -11 -10 -5 0 -7 5 -4 10 3 6 8 10 11 10 2 0 4 -4 4
-10z m-4687 -55 c-3 -9 -8 -14 -10 -11 -3 3 -2 9 2 15 9 16 15 13 8 -4z m21
-121 c3 -8 2 -12 -4 -9 -6 3 -10 10 -10 16 0 14 7 11 14 -7z m-304 -849 c-7
-8 -17 -15 -23 -15 -6 0 -2 7 9 15 25 19 30 19 14 0z m5457 -71 c-3 -3 -12 -4
-19 -1 -8 3 -5 6 6 6 11 1 17 -2 13 -5z m-5490 -73 c-14 -28 -14 -32 1 -41 9
-5 12 -10 5 -10 -7 0 -10 -7 -6 -17 5 -15 3 -14 -10 2 -16 20 -16 19 -15 -7 1
-16 8 -28 15 -28 6 0 15 -4 18 -10 4 -6 -2 -7 -17 -1 -17 6 -26 4 -36 -8 -8
-9 -10 -10 -6 -2 5 9 3 12 -5 7 -6 -4 -9 -12 -5 -17 4 -6 11 -6 20 2 8 6 17 9
20 6 9 -9 -6 -28 -17 -22 -5 4 -9 1 -9 -6 0 -7 -8 -5 -20 6 -20 18 -20 18 6
36 17 11 22 19 14 24 -8 5 -7 12 4 24 10 11 12 21 6 27 -6 6 -6 15 0 24 9 13
10 13 10 0 1 -12 3 -11 11 3 5 9 7 22 3 29 -4 7 -3 8 4 4 7 -4 12 -2 12 5 0 7
3 10 6 6 3 -3 -1 -20 -9 -36z m-4 -156 c-3 -9 -8 -14 -10 -11 -3 3 -2 9 2 15
9 16 15 13 8 -4z m-179 -204 c4 -5 -3 -7 -14 -4 -23 6 -26 13 -6 13 8 0 17 -4
20 -9z m-72 -34 c-7 -8 -9 -17 -5 -20 3 -4 1 -7 -5 -7 -15 0 -15 6 -1 32 6 11
13 17 16 14 3 -3 1 -12 -5 -19z m4428 -1919 c0 10 36 9 46 0 3 -4 -4 -12 -16
-18 -13 -7 -20 -8 -16 -2 4 7 -4 10 -20 9 -18 -2 -28 -9 -30 -21 -4 -25 -7
-26 -29 -9 -16 13 -17 15 -2 10 19 -7 24 8 5 17 -7 3 -4 4 7 3 12 -1 19 3 17
11 -2 10 2 10 18 2 11 -6 20 -7 20 -2z m-3143 -386 c9 -15 8 -19 -3 -19 -8 0
-12 3 -9 5 3 3 0 11 -6 19 -6 7 -7 13 -3 13 5 0 14 -8 21 -18z m74 -25 c-10
-9 -11 -8 -5 6 3 10 9 15 12 12 3 -3 0 -11 -7 -18z m664 -227 c-3 -5 -12 -10
-18 -10 -7 0 -6 4 3 10 19 12 23 12 15 0z"/>
<path d="M3069 8138 c-4 -15 -6 -50 -3 -40 3 6 11 9 17 5 7 -4 5 2 -3 12 -14
17 -13 18 3 12 11 -4 16 -3 12 3 -5 9 -24 14 -26 8z"/>
<path d="M2911 8037 c-8 -10 -7 -14 2 -14 8 0 14 6 14 14 0 7 -1 13 -2 13 -2
0 -8 -6 -14 -13z"/>
<path d="M2983 6505 c0 -8 4 -12 9 -9 5 3 6 10 3 15 -9 13 -12 11 -12 -6z"/>
<path d="M2701 5861 c-8 -6 -9 -11 -3 -15 6 -3 14 -1 17 5 9 14 2 20 -14 10z"/>
<path d="M2410 4446 c0 -2 8 -10 18 -17 15 -13 16 -12 3 4 -13 16 -21 21 -21
13z"/>
<path d="M4030 7459 c0 -5 5 -7 10 -4 6 3 10 8 10 11 0 2 -4 4 -10 4 -5 0 -10
-5 -10 -11z"/>
<path d="M3955 7340 c-3 -5 -1 -10 4 -10 6 0 11 5 11 10 0 6 -2 10 -4 10 -3 0
-8 -4 -11 -10z"/>
<path d="M3875 7320 c3 -5 8 -10 11 -10 2 0 4 5 4 10 0 6 -5 10 -11 10 -5 0
-7 -4 -4 -10z"/>
<path d="M3175 7100 c-3 -5 -1 -10 4 -10 6 0 11 5 11 10 0 6 -2 10 -4 10 -3 0
-8 -4 -11 -10z"/>
<path d="M2760 7075 c-12 -15 -10 -17 20 -19 8 -1 14 -8 12 -15 -1 -7 2 -10 8
-6 17 11 -8 35 -28 28 -15 -6 -15 -5 -3 10 7 9 11 17 8 17 -2 0 -10 -7 -17
-15z"/>
<path d="M2799 7013 c-13 -16 -12 -17 4 -4 9 7 17 15 17 17 0 8 -8 3 -21 -13z"/>
<path d="M2854 6956 c1 -8 5 -18 8 -22 4 -3 5 1 4 10 -1 8 -5 18 -8 22 -4 3
-5 -1 -4 -10z"/>
<path d="M2900 6926 c0 -2 8 -10 18 -17 15 -13 16 -12 3 4 -13 16 -21 21 -21
13z"/>
<path d="M3130 6921 c0 -6 4 -13 10 -16 6 -3 7 1 4 9 -7 18 -14 21 -14 7z"/>
<path d="M3174 6921 c4 -5 1 -12 -4 -14 -6 -3 -5 -4 2 -3 15 3 23 26 8 26 -6
0 -9 -4 -6 -9z"/>
<path d="M2859 6873 c-13 -16 -12 -17 3 -5 9 8 23 10 29 6 8 -4 9 -3 5 4 -10
17 -21 15 -37 -5z"/>
<path d="M2868 6843 c7 -3 16 -2 19 1 4 3 -2 6 -13 5 -11 0 -14 -3 -6 -6z"/>
<path d="M3225 6839 c-4 -6 -13 -8 -20 -5 -7 2 -16 -1 -18 -8 -4 -10 1 -12 15
-8 16 4 19 2 13 -9 -6 -11 -5 -12 5 -2 8 7 15 20 16 28 3 18 -2 19 -11 4z"/>
<path d="M2935 6831 c-3 -5 -2 -12 3 -15 5 -3 9 1 9 9 0 17 -3 19 -12 6z"/>
<path d="M3021 6794 c0 -11 3 -14 6 -6 3 7 2 16 -1 19 -3 4 -6 -2 -5 -13z"/>
<path d="M2870 6739 c0 -5 5 -7 10 -4 6 3 10 8 10 11 0 2 -4 4 -10 4 -5 0 -10
-5 -10 -11z"/>
<path d="M2933 6721 c0 -11 5 -18 9 -15 4 3 5 11 1 19 -7 21 -12 19 -10 -4z"/>
<path d="M3033 6683 c9 -2 15 -9 12 -14 -3 -5 1 -6 9 -3 25 9 19 20 -11 21
-16 0 -20 -1 -10 -4z"/>
<path d="M2935 6600 c3 -5 8 -10 11 -10 2 0 4 5 4 10 0 6 -5 10 -11 10 -5 0
-7 -4 -4 -10z"/>
<path d="M2695 6420 c-3 -6 1 -7 9 -4 18 7 21 14 7 14 -6 0 -13 -4 -16 -10z"/>
<path d="M7255 6259 c-3 -4 2 -6 10 -5 21 3 28 13 10 13 -9 0 -18 -4 -20 -8z"/>
<path d="M7210 6220 c0 -5 5 -10 11 -10 5 0 7 5 4 10 -3 6 -8 10 -11 10 -2 0
-4 -4 -4 -10z"/>
<path d="M7246 6202 c-3 -5 1 -9 9 -9 8 0 12 4 9 9 -3 4 -7 8 -9 8 -2 0 -6 -4
-9 -8z"/>
<path d="M2790 6181 c0 -6 4 -13 10 -16 6 -3 7 1 4 9 -7 18 -14 21 -14 7z"/>
<path d="M7175 6180 c-3 -5 -1 -10 4 -10 6 0 11 5 11 10 0 6 -2 10 -4 10 -3 0
-8 -4 -11 -10z"/>
<path d="M2795 6140 c3 -5 8 -10 11 -10 2 0 4 5 4 10 0 6 -5 10 -11 10 -5 0
-7 -4 -4 -10z"/>
<path d="M2534 6116 c1 -8 5 -18 8 -22 4 -3 5 1 4 10 -1 8 -5 18 -8 22 -4 3
-5 -1 -4 -10z"/>
<path d="M7110 6118 c0 -4 4 -8 9 -8 6 0 12 4 15 8 3 5 -1 9 -9 9 -8 0 -15 -4
-15 -9z"/>
<path d="M7155 6120 c-3 -5 -1 -10 4 -10 6 0 11 5 11 10 0 6 -2 10 -4 10 -3 0
-8 -4 -11 -10z"/>
<path d="M2790 6116 c0 -2 8 -10 18 -17 15 -13 16 -12 3 4 -13 16 -21 21 -21
13z"/>
<path d="M2655 6100 c3 -5 8 -10 11 -10 2 0 4 5 4 10 0 6 -5 10 -11 10 -5 0
-7 -4 -4 -10z"/>
<path d="M7195 6100 c-3 -5 -1 -10 4 -10 6 0 11 5 11 10 0 6 -2 10 -4 10 -3 0
-8 -4 -11 -10z"/>
<path d="M2555 6080 c-3 -5 -1 -10 4 -10 6 0 11 5 11 10 0 6 -2 10 -4 10 -3 0
-8 -4 -11 -10z"/>
<path d="M2590 6081 c0 -6 4 -12 8 -15 5 -3 9 1 9 9 0 8 -4 15 -9 15 -4 0 -8
-4 -8 -9z"/>
<path d="M2677 6053 c3 -7 6 -13 8 -13 2 0 5 6 8 13 3 8 -1 14 -8 14 -7 0 -11
-6 -8 -14z"/>
<path d="M7138 6058 c5 -5 16 -8 23 -6 8 3 3 7 -10 11 -17 4 -21 3 -13 -5z"/>
<path d="M2735 6049 c-4 -6 -13 -8 -21 -5 -8 3 -14 1 -14 -4 0 -16 37 -11 44
5 6 17 0 20 -9 4z"/>
<path d="M2546 6042 c-2 -4 4 -8 14 -8 10 0 16 4 14 8 -3 4 -9 8 -14 8 -5 0
-11 -4 -14 -8z"/>
<path d="M7184 6035 c-5 -13 -9 -13 -22 -3 -13 11 -14 11 -7 -2 5 -8 10 -25
11 -38 2 -20 0 -21 -12 -11 -10 8 -18 9 -25 2 -9 -9 0 -13 44 -14 17 0 25 -19
8 -19 -5 0 -13 -9 -16 -20 -4 -12 -11 -17 -18 -14 -7 4 -7 1 1 -7 7 -8 18 -14
25 -14 7 0 11 -8 11 -17 -1 -10 4 -14 12 -11 17 6 18 20 2 25 -8 3 -6 7 5 11
10 4 16 2 14 -6 -1 -7 5 -10 13 -8 33 8 45 5 46 -9 1 -8 2 -19 3 -23 0 -4 10
-3 21 3 11 6 18 15 16 19 -3 4 5 13 18 19 17 8 23 7 23 -3 0 -7 -6 -11 -14 -8
-24 9 -13 -15 20 -43 17 -15 31 -31 29 -36 -1 -5 2 -7 7 -4 10 6 24 -21 17
-33 -3 -4 5 -7 17 -8 12 0 16 1 10 4 -7 3 -13 9 -13 14 0 6 5 7 10 4 6 -3 10
-1 10 5 0 7 -6 10 -14 7 -10 -4 -13 4 -12 31 1 24 -3 36 -11 35 -7 -2 -20 11
-30 27 -13 23 -22 28 -38 24 -18 -6 -19 -5 -5 12 8 10 10 16 6 12 -5 -4 -18 2
-29 15 -15 16 -18 17 -14 5 3 -10 2 -20 -3 -23 -13 -8 -18 18 -7 40 9 18 9 19
-7 6 -11 -9 -14 -21 -10 -35 6 -18 5 -19 -9 -7 -9 7 -15 17 -12 21 3 5 -4 6
-15 3 -16 -4 -19 -2 -14 13 6 15 4 16 -6 7 -14 -13 -5 -33 15 -33 7 0 12 -10
11 -25 -1 -25 -21 -30 -21 -5 0 8 -12 28 -27 44 -33 36 -33 36 -8 64 12 12 16
22 10 22 -6 0 -13 -7 -16 -15z m26 -113 c0 -15 -2 -15 -10 -2 -8 13 -10 13
-10 -1 0 -9 -7 -16 -15 -16 -14 0 -12 9 8 34 12 16 27 7 27 -15z m116 -7 c1
-8 -2 -13 -7 -9 -8 5 -13 -9 -10 -31 1 -5 -8 1 -20 15 -12 14 -26 24 -30 23
-5 -2 -9 2 -9 7 0 6 11 8 25 6 13 -3 27 0 31 5 7 12 17 4 20 -16z m84 -60 c4
2 8 -6 8 -19 0 -23 -1 -23 -22 -5 -11 10 -30 25 -41 34 -19 14 -19 15 -1 8 16
-5 18 -3 13 13 -5 12 0 9 14 -9 11 -15 24 -25 29 -22z"/>
<path d="M7305 5920 c-4 -6 -11 -8 -16 -5 -5 3 -6 -1 -3 -10 4 -9 7 -15 8 -13
1 2 8 11 15 21 7 9 11 17 8 17 -3 0 -9 -5 -12 -10z"/>
<path d="M7370 5866 c0 -2 8 -10 18 -17 15 -13 16 -12 3 4 -13 16 -21 21 -21
13z"/>
<path d="M7221 6036 c-9 -11 -9 -16 1 -22 7 -4 10 -4 6 1 -4 4 -3 14 3 22 6 7
9 13 6 13 -2 0 -10 -6 -16 -14z"/>
<path d="M2476 6027 c3 -10 9 -15 12 -12 3 3 0 11 -7 18 -10 9 -11 8 -5 -6z"/>
<path d="M2816 6023 c-6 -14 -5 -15 5 -6 7 7 10 15 7 18 -3 3 -9 -2 -12 -12z"/>
<path d="M2676 6021 c-3 -5 2 -15 12 -22 15 -12 16 -12 5 2 -7 9 -10 19 -6 22
3 4 4 7 0 7 -3 0 -8 -4 -11 -9z"/>
<path d="M2537 6009 c7 -7 15 -10 18 -7 3 3 -2 9 -12 12 -14 6 -15 5 -6 -5z"/>
<path d="M2499 5993 c-12 -16 -12 -17 2 -6 9 7 20 9 24 5 5 -4 5 -1 1 6 -9 16
-11 15 -27 -5z"/>
<path d="M7190 6000 c0 -5 5 -10 10 -10 6 0 10 5 10 10 0 6 -4 10 -10 10 -5 0
-10 -4 -10 -10z"/>
<path d="M7241 5994 c0 -11 3 -14 6 -6 3 7 2 16 -1 19 -3 4 -6 -2 -5 -13z"/>
<path d="M7350 5976 c14 -18 13 -19 -5 -12 -16 6 -18 5 -7 -5 8 -9 15 -10 22
-3 8 8 5 15 -7 25 -17 13 -17 13 -3 -5z"/>
<path d="M2515 5970 c-4 -6 -11 -7 -17 -4 -7 4 -8 2 -4 -5 6 -9 11 -9 22 0 14
11 18 19 10 19 -3 0 -8 -5 -11 -10z"/>
<path d="M2556 5962 c-3 -5 1 -9 9 -9 8 0 12 4 9 9 -3 4 -7 8 -9 8 -2 0 -6 -4
-9 -8z"/>
<path d="M2657 5956 c-4 -10 -1 -13 8 -9 8 3 12 9 9 14 -7 12 -11 11 -17 -5z"/>
<path d="M7386 5933 c-4 -11 -1 -22 8 -29 9 -6 13 -14 9 -17 -3 -4 -4 -7 0 -7
3 0 15 13 27 30 15 21 17 28 6 24 -8 -3 -16 -12 -18 -20 -2 -9 -7 -11 -18 -4
-12 8 -13 11 -1 19 8 5 9 11 3 15 -5 3 -13 -2 -16 -11z"/>
<path d="M2535 5920 c3 -5 8 -10 11 -10 2 0 4 5 4 10 0 6 -5 10 -11 10 -5 0
-7 -4 -4 -10z"/>
<path d="M2475 5901 c-3 -5 -2 -12 3 -15 5 -3 9 1 9 9 0 17 -3 19 -12 6z"/>
<path d="M2536 5887 c3 -10 9 -15 12 -12 3 3 0 11 -7 18 -10 9 -11 8 -5 -6z"/>
<path d="M2595 5870 c10 -11 20 -20 23 -20 3 0 -3 9 -13 20 -10 11 -20 20 -23
20 -3 0 3 -9 13 -20z"/>
<path d="M7430 5881 c0 -6 4 -13 10 -16 6 -3 7 1 4 9 -7 18 -14 21 -14 7z"/>
<path d="M7470 5859 c0 -5 5 -7 10 -4 6 3 10 8 10 11 0 2 -4 4 -10 4 -5 0 -10
-5 -10 -11z"/>
<path d="M2586 5842 c-3 -5 1 -9 9 -9 8 0 12 4 9 9 -3 4 -7 8 -9 8 -2 0 -6 -4
-9 -8z"/>
<path d="M2534 5816 c1 -8 5 -18 8 -22 4 -3 5 1 4 10 -1 8 -5 18 -8 22 -4 3
-5 -1 -4 -10z"/>
<path d="M7470 5806 c0 -2 7 -7 16 -10 8 -3 12 -2 9 4 -6 10 -25 14 -25 6z"/>
<path d="M2600 5755 c-7 -8 -17 -12 -23 -8 -6 3 -7 1 -3 -5 5 -9 12 -8 26 1
11 6 20 15 20 19 0 12 -6 10 -20 -7z"/>
<path d="M7489 5733 c-12 -16 -12 -17 1 -7 8 6 22 14 30 17 13 5 12 6 -1 6 -9
1 -23 -7 -30 -16z"/>
<path d="M2576 5687 c3 -10 9 -15 12 -12 3 3 0 11 -7 18 -10 9 -11 8 -5 -6z"/>
<path d="M2619 5698 c-5 -18 -6 -38 -1 -34 7 8 12 36 6 36 -2 0 -4 -1 -5 -2z"/>
<path d="M7510 5671 c0 -10 19 -25 25 -20 1 2 -3 10 -11 17 -8 7 -14 8 -14 3z"/>
<path d="M2627 5639 c7 -7 15 -10 18 -7 3 3 -2 9 -12 12 -14 6 -15 5 -6 -5z"/>
<path d="M2638 5613 c7 -3 16 -2 19 1 4 3 -2 6 -13 5 -11 0 -14 -3 -6 -6z"/>
<path d="M7535 5579 c-4 -6 -4 -13 -1 -16 3 -4 6 -1 6 7 0 10 4 10 18 -1 15
-13 16 -12 3 4 -16 20 -18 20 -26 6z"/>
<path d="M2640 5565 c0 -2 6 -8 13 -14 10 -8 14 -7 14 2 0 8 -6 14 -14 14 -7
0 -13 -1 -13 -2z"/>
<path d="M2701 5544 c-24 -30 -26 -40 -9 -50 6 -4 8 -3 5 4 -9 13 2 44 14 37
4 -3 5 -13 2 -22 -5 -13 -2 -15 11 -10 11 5 16 3 14 -5 -2 -6 -12 -12 -22 -14
-10 -1 -21 -6 -24 -10 -4 -4 0 -5 9 -1 9 3 23 -3 33 -14 18 -22 21 -33 6 -24
-5 3 -10 2 -10 -4 0 -5 5 -13 10 -16 6 -3 10 -1 10 5 0 6 5 8 12 4 13 -8 3 12
-20 38 -13 16 -13 18 2 24 13 5 14 9 5 20 -6 8 -8 14 -4 14 5 0 1 8 -8 18 -10
10 -14 22 -10 25 3 4 4 7 0 7 -3 0 -15 -12 -26 -26z m28 -8 c9 -11 9 -16 -1
-22 -7 -4 -10 -4 -6 1 4 4 3 14 -3 22 -6 7 -9 13 -6 13 2 0 10 -6 16 -14z"/>
<path d="M7510 5541 c0 -6 4 -12 8 -15 5 -3 9 1 9 9 0 8 -4 15 -9 15 -4 0 -8
-4 -8 -9z"/>
<path d="M2656 5458 c3 -5 10 -6 15 -3 13 9 11 12 -6 12 -8 0 -12 -4 -9 -9z"/>
<path d="M7466 5418 c3 -5 10 -6 15 -3 13 9 11 12 -6 12 -8 0 -12 -4 -9 -9z"/>
<path d="M2753 5400 c-13 -5 -23 -11 -23 -14 0 -7 40 6 46 15 6 10 6 10 -23
-1z"/>
<path d="M7910 4620 c-9 -6 -10 -10 -3 -10 6 0 15 5 18 10 8 12 4 12 -15 0z"/>
<path d="M7945 4580 c-3 -6 1 -7 9 -4 18 7 21 14 7 14 -6 0 -13 -4 -16 -10z"/>
<path d="M2398 4533 c7 -3 16 -2 19 1 4 3 -2 6 -13 5 -11 0 -14 -3 -6 -6z"/>
<path d="M7974 4522 c4 -3 14 -7 22 -8 9 -1 13 0 10 4 -4 3 -14 7 -22 8 -9 1
-13 0 -10 -4z"/>
<path d="M2381 4474 c0 -11 3 -14 6 -6 3 7 2 16 -1 19 -3 4 -6 -2 -5 -13z"/>
<path d="M8010 4475 c0 -8 2 -15 4 -15 2 0 6 7 10 15 3 8 1 15 -4 15 -6 0 -10
-7 -10 -15z"/>
<path d="M2276 4327 c3 -10 9 -15 12 -12 3 3 0 11 -7 18 -10 9 -11 8 -5 -6z"/>
<path d="M2319 4333 c0 -5 -2 -16 -4 -25 -2 -10 0 -18 5 -18 4 0 8 11 8 25 0
22 -7 36 -9 18z"/>
<path d="M2340 4320 c0 -5 5 -10 11 -10 5 0 7 5 4 10 -3 6 -8 10 -11 10 -2 0
-4 -4 -4 -10z"/>
<path d="M2349 4290 c-8 -6 -8 -13 0 -29 11 -20 23 -29 19 -13 -1 4 3 16 9 28
10 17 9 21 -2 21 -8 0 -19 -4 -26 -7z m21 -10 c0 -5 -5 -10 -11 -10 -5 0 -7 5
-4 10 3 6 8 10 11 10 2 0 4 -4 4 -10z"/>
<path d="M2316 4265 c5 -11 4 -16 -3 -12 -5 3 -10 0 -10 -8 0 -8 4 -15 8 -15
4 0 6 -9 4 -20 -2 -12 0 -18 6 -15 5 4 6 11 3 17 -4 7 -2 8 5 4 6 -4 9 -11 6
-16 -3 -5 -2 -11 3 -13 4 -3 12 4 17 16 8 18 5 27 -18 51 -17 19 -25 23 -21
11z m30 -42 c-7 -7 -26 7 -26 19 0 6 6 6 15 -2 9 -7 13 -15 11 -17z"/>
<path d="M2267 4239 c7 -7 15 -10 18 -7 3 3 -2 9 -12 12 -14 6 -15 5 -6 -5z"/>
<path d="M2216 4227 c3 -10 9 -15 12 -12 3 3 0 11 -7 18 -10 9 -11 8 -5 -6z"/>
<path d="M2266 4201 c5 -18 3 -22 -7 -15 -12 7 -12 5 -1 -9 8 -9 11 -21 7 -26
-3 -6 0 -8 9 -5 16 6 14 33 -4 61 -9 15 -10 15 -4 -6z"/>
<path d="M2190 4141 c0 -6 4 -13 10 -16 6 -3 7 1 4 9 -7 18 -14 21 -14 7z"/>
<path d="M6693 2138 c1 -7 -4 -12 -11 -10 -8 1 -11 -2 -7 -8 5 -8 11 -8 21 1
7 6 11 15 8 20 -8 13 -14 11 -11 -3z"/>
<path d="M6740 2140 c-9 -6 -10 -10 -3 -10 6 0 15 5 18 10 8 12 4 12 -15 0z"/>
<path d="M6596 2093 c-4 -9 -3 -20 1 -24 4 -4 9 3 9 17 2 28 -1 31 -10 7z"/>
<path d="M6214 1789 c-19 -21 -29 -53 -13 -43 5 3 7 10 4 15 -4 5 -2 9 4 9 5
0 12 -6 14 -12 4 -8 6 -7 6 4 1 11 8 15 26 13 31 -3 31 -1 1 18 -22 15 -25 15
-42 -4z m30 3 c3 -5 -1 -9 -9 -9 -8 0 -12 4 -9 9 3 4 7 8 9 8 2 0 6 -4 9 -8z"/>
<path d="M6290 1799 c0 -5 5 -7 10 -4 6 3 10 8 10 11 0 2 -4 4 -10 4 -5 0 -10
-5 -10 -11z"/>
<path d="M3815 1660 c-3 -5 -1 -10 4 -10 6 0 11 5 11 10 0 6 -2 10 -4 10 -3 0
-8 -4 -11 -10z"/>
<path d="M3865 1641 c-3 -5 0 -13 6 -17 7 -4 9 -3 5 4 -3 5 0 13 6 15 9 4 10
6 1 6 -6 1 -14 -3 -18 -8z"/>
<path d="M3907 1639 c7 -9 10 -19 6 -22 -3 -4 -1 -7 5 -7 17 0 15 16 -5 31
-16 12 -17 12 -6 -2z"/>
<path d="M3956 1605 c-9 -26 -7 -32 5 -12 6 10 9 21 6 23 -2 3 -7 -2 -11 -11z"/>
<path d="M3982 1600 c-7 -11 -8 -20 -3 -20 9 0 24 30 18 36 -1 2 -8 -6 -15
-16z"/>
<path d="M4001 1583 c-10 -26 -10 -27 4 -9 8 11 15 23 15 28 0 15 -7 8 -19
-19z"/>
<path d="M4022 1569 c-8 -12 -9 -18 -4 -15 5 3 20 -3 32 -14 12 -11 27 -17 31
-14 5 3 9 0 9 -7 0 -20 14 -1 15 21 2 24 -19 44 -39 37 -7 -3 -18 -1 -23 4 -5
5 -14 0 -21 -12z m73 -9 c3 -4 -1 -12 -8 -18 -8 -7 -18 -5 -34 7 l-22 18 30 1
c16 0 31 -3 34 -8z"/>
<path d="M4066 1548 c3 -5 10 -6 15 -3 13 9 11 12 -6 12 -8 0 -12 -4 -9 -9z"/>
<path d="M4156 1528 c3 -5 10 -6 15 -3 13 9 11 12 -6 12 -8 0 -12 -4 -9 -9z"/>
</g>
</svg>
